<svg width="60" height="60" viewBox="0 0 60 60" fill="none" xmlns="http://www.w3.org/2000/svg">
<rect width="60" height="60" rx="30" fill="#E5F0FF"/>
<path d="M41.6667 32.9167H35.8334C34.2226 32.9167 32.9167 34.2226 32.9167 35.8334V41.6667C32.9167 43.2776 34.2226 44.5834 35.8334 44.5834H41.6667C43.2776 44.5834 44.5834 43.2776 44.5834 41.6667V35.8334C44.5834 34.2226 43.2776 32.9167 41.6667 32.9167Z" stroke="#0068FF" stroke-width="2.91667" stroke-linecap="round" stroke-linejoin="round"/>
<path d="M24.1667 15.4167H18.3334C16.7226 15.4167 15.4167 16.7226 15.4167 18.3334V24.1667C15.4167 25.7776 16.7226 27.0834 18.3334 27.0834H24.1667C25.7776 27.0834 27.0834 25.7776 27.0834 24.1667V18.3334C27.0834 16.7226 25.7776 15.4167 24.1667 15.4167Z" stroke="#0068FF" stroke-width="2.91667" stroke-linecap="round" stroke-linejoin="round"/>
<path d="M22.7083 32.9167V34.3751C22.7083 35.1486 23.0155 35.8905 23.5625 36.4375C24.1095 36.9845 24.8514 37.2917 25.6249 37.2917H27.0833" stroke="#0068FF" stroke-width="2.91667" stroke-linecap="round" stroke-linejoin="round"/>
<path d="M32.9167 22.7083H34.3751C35.1486 22.7083 35.8905 23.0155 36.4375 23.5625C36.9845 24.1095 37.2917 24.8514 37.2917 25.6249V27.0833" stroke="#0068FF" stroke-width="2.91667" stroke-linecap="round" stroke-linejoin="round"/>
</svg>
