<svg width="60" height="60" viewBox="0 0 60 60" fill="none" xmlns="http://www.w3.org/2000/svg">
<rect width="60" height="60" rx="30" fill="#E5F0FF"/>
<path d="M18.1146 25.0708C17.9017 24.112 17.9344 23.1149 18.2096 22.1721C18.4848 21.2293 18.9936 20.3712 19.6888 19.6774C20.384 18.9837 21.2431 18.4767 22.1865 18.2035C23.1299 17.9303 24.127 17.8997 25.0854 18.1145C25.6129 17.2895 26.3396 16.6106 27.1984 16.1404C28.0573 15.6701 29.0208 15.4236 30 15.4236C30.9792 15.4236 31.9426 15.6701 32.8015 16.1404C33.6604 16.6106 34.3871 17.2895 34.9146 18.1145C35.8744 17.8987 36.8732 17.9292 37.8181 18.2031C38.763 18.4769 39.6233 18.9854 40.3189 19.681C41.0146 20.3766 41.523 21.2369 41.7969 22.1818C42.0707 23.1267 42.1012 24.1255 41.8854 25.0854C42.7104 25.6128 43.3893 26.3395 43.8596 27.1984C44.3298 28.0573 44.5763 29.0207 44.5763 29.9999C44.5763 30.9791 44.3298 31.9426 43.8596 32.8015C43.3893 33.6604 42.7104 34.387 41.8854 34.9145C42.1003 35.8729 42.0697 36.87 41.7964 37.8134C41.5232 38.7568 41.0162 39.6159 40.3225 40.3111C39.6287 41.0063 38.7706 41.5151 37.8278 41.7903C36.885 42.0655 35.888 42.0982 34.9291 41.8854C34.4023 42.7135 33.6751 43.3953 32.8147 43.8677C31.9544 44.3401 30.9888 44.5877 30.0073 44.5877C29.0258 44.5877 28.0601 44.3401 27.1998 43.8677C26.3394 43.3953 25.6122 42.7135 25.0854 41.8854C24.127 42.1002 23.1299 42.0696 22.1865 41.7964C21.2431 41.5232 20.384 41.0162 19.6888 40.3224C18.9936 39.6287 18.4848 38.7706 18.2096 37.8278C17.9344 36.885 17.9017 35.8879 18.1146 34.9291C17.2832 34.403 16.5985 33.6752 16.124 32.8134C15.6495 31.9516 15.4007 30.9837 15.4007 29.9999C15.4007 29.0161 15.6495 28.0483 16.124 27.1865C16.5985 26.3247 17.2832 25.5969 18.1146 25.0708Z" stroke="#0068FF" stroke-width="2.91667" stroke-linecap="round" stroke-linejoin="round"/>
<path d="M30 35.8333V30" stroke="#0068FF" stroke-width="2.91667" stroke-linecap="round" stroke-linejoin="round"/>
<path d="M30 24.1667H30.0146" stroke="#0068FF" stroke-width="2.91667" stroke-linecap="round" stroke-linejoin="round"/>
</svg>
