<svg width="60" height="60" viewBox="0 0 60 60" fill="none" xmlns="http://www.w3.org/2000/svg">
<rect width="60" height="60" rx="30" fill="#E5F0FF"/>
<path d="M19.0624 36.5625C16.8749 38.4 16.1458 43.8541 16.1458 43.8541C16.1458 43.8541 21.5999 43.125 23.4374 40.9375C24.4728 39.7125 24.4583 37.8312 23.3062 36.6937C22.7393 36.1527 21.9926 35.8401 21.2094 35.8159C20.4262 35.7916 19.6616 36.0575 19.0624 36.5625Z" stroke="#0068FF" stroke-width="2.91667" stroke-linecap="round" stroke-linejoin="round"/>
<path d="M30 34.375L25.625 30C26.401 27.9866 27.3782 26.0567 28.5417 24.2395C30.2409 21.5226 32.607 19.2857 35.4148 17.7413C38.2226 16.197 41.3789 15.3967 44.5833 15.4166C44.5833 19.3833 43.4458 26.3541 35.8333 31.4583C33.9913 32.6231 32.0371 33.6002 30 34.375Z" stroke="#0068FF" stroke-width="2.91667" stroke-linecap="round" stroke-linejoin="round"/>
<path d="M25.6249 30H18.3333C18.3333 30 19.1353 25.5813 21.2499 24.1667C23.6124 22.5917 28.5416 24.1667 28.5416 24.1667" stroke="#0068FF" stroke-width="2.91667" stroke-linecap="round" stroke-linejoin="round"/>
<path d="M30 34.3749V41.6666C30 41.6666 34.4187 40.8645 35.8333 38.7499C37.4083 36.3874 35.8333 31.4583 35.8333 31.4583" stroke="#0068FF" stroke-width="2.91667" stroke-linecap="round" stroke-linejoin="round"/>
</svg>
