<svg width="60" height="60" viewBox="0 0 60 60" fill="none" xmlns="http://www.w3.org/2000/svg">
<rect width="60" height="60" rx="30" fill="#E5F0FF"/>
<path d="M30.0001 44.5834C38.0542 44.5834 44.5834 38.0542 44.5834 30.0001C44.5834 21.9459 38.0542 15.4167 30.0001 15.4167C21.9459 15.4167 15.4167 21.9459 15.4167 30.0001C15.4167 38.0542 21.9459 44.5834 30.0001 44.5834Z" stroke="#0068FF" stroke-width="2.91667" stroke-linecap="round" stroke-linejoin="round"/>
<path d="M35.8334 24.1667H27.0834C26.3099 24.1667 25.568 24.474 25.021 25.021C24.474 25.568 24.1667 26.3099 24.1667 27.0834C24.1667 27.857 24.474 28.5988 25.021 29.1458C25.568 29.6928 26.3099 30.0001 27.0834 30.0001H32.9167C33.6903 30.0001 34.4322 30.3074 34.9791 30.8544C35.5261 31.4013 35.8334 32.1432 35.8334 32.9167C35.8334 33.6903 35.5261 34.4322 34.9791 34.9791C34.4322 35.5261 33.6903 35.8334 32.9167 35.8334H24.1667" stroke="#0068FF" stroke-width="2.91667" stroke-linecap="round" stroke-linejoin="round"/>
<path d="M30 38.75V21.25" stroke="#0068FF" stroke-width="2.91667" stroke-linecap="round" stroke-linejoin="round"/>
</svg>
