<svg width="150" height="24" viewBox="0 0 150 24" fill="none" xmlns="http://www.w3.org/2000/svg">
<g clip-path="url(#clip0)">
<path d="M19.3568 0H0.542714V4.0402H13.598L0.693467 20.0201C0.301508 20.593 0 21.1357 0 22.3719V23.397H17.7588C18.6633 23.397 19.3869 22.6734 19.3869 21.7688V19.6281H5.66834L17.7588 4.43216C17.8219 4.35851 17.9034 4.25917 17.9892 4.15462C18.1491 3.95961 18.324 3.74636 18.4221 3.64824L18.5126 3.55779C19.206 2.53266 19.3568 1.65829 19.3568 0.572864V0Z" fill="#0068FF"/>
<path d="M43.2965 23.397H45.9799V0H41.9397V22.0402C41.9397 22.794 42.5427 23.397 43.2965 23.397Z" fill="#0068FF"/>
<path fill-rule="evenodd" clip-rule="evenodd" d="M38.7135 23.397H36.5125C35.6382 23.397 34.9447 22.7035 34.9447 21.8593V21.8165C33.4256 22.925 31.5508 23.5779 29.5176 23.5779C24.4221 23.5779 20.3216 19.4472 20.3216 14.3819C20.3216 9.28644 24.4522 5.18593 29.5176 5.18593C31.5508 5.18593 33.4256 5.83883 34.9447 6.94731V5.6985H38.7135V23.397ZM29.5176 19.7789C26.5326 19.7789 24.1206 17.3668 24.1206 14.3819C24.1206 11.397 26.5326 8.98493 29.5176 8.98493C32.5025 8.98493 34.9145 11.397 34.9145 14.3819C34.9145 17.3668 32.5326 19.7789 29.5176 19.7789Z" fill="#0068FF"/>
<path fill-rule="evenodd" clip-rule="evenodd" d="M48.6633 14.3216C48.6633 9.19598 52.7939 5.06532 57.9196 5.06532C63.0151 5.06532 67.1759 9.22613 67.1759 14.3216C67.1759 19.4472 63.0452 23.5779 57.9196 23.5779C52.7939 23.5779 48.6633 19.4472 48.6633 14.3216ZM52.4623 14.3216C52.4623 17.3367 54.9045 19.7789 57.9196 19.7789C60.9045 19.7789 63.3769 17.3367 63.3769 14.3216C63.3769 11.3065 60.9347 8.86432 57.9196 8.86432C54.9045 8.86432 52.4623 11.3065 52.4623 14.3216Z" fill="#0068FF"/>
<path d="M95.1859 18.603C93.9798 21.4673 90.7235 23.9698 86.5929 23.9698C81.0753 23.9698 76.8542 19.6884 76.8542 14.2914C76.8542 8.95475 80.9848 4.61304 86.5627 4.61304C91.1758 4.61304 94.1004 7.68842 95.1859 10.0703H92.9245C92.2914 8.95475 90.1808 6.45223 86.5627 6.45223C82.1909 6.45223 78.9044 9.91957 78.9044 14.2613C78.9044 18.6934 82.221 22.1005 86.5627 22.1005C90.4823 22.1005 92.4723 19.2965 92.9245 18.603H95.1859Z" fill="#0068FF"/>
<path d="M97.8994 4.94471H99.7688V23.6382H97.8994V4.94471Z" fill="#0068FF"/>
<path fill-rule="evenodd" clip-rule="evenodd" d="M109.749 9.64822C105.377 9.64822 102.543 12.995 102.543 16.7939C102.543 20.6532 105.377 23.9698 109.749 23.9698C114.151 23.9698 116.985 20.6532 116.985 16.8241C116.985 12.995 114.151 9.64822 109.749 9.64822ZM109.749 22.2512C106.734 22.2512 104.382 19.9296 104.382 16.8542C104.382 13.7186 106.734 11.397 109.749 11.397C112.794 11.397 115.116 13.7186 115.116 16.8241C115.116 19.9296 112.794 22.2512 109.749 22.2512Z" fill="#0068FF"/>
<path d="M132.241 23.608H130.492V21.196C129.739 22.9748 127.899 24.0301 125.457 24C121.206 23.9095 119.729 21.0452 119.729 17.7286V10.0402H121.568V17.397C121.568 20.3216 122.894 22.2814 125.94 22.2814C128.774 22.2512 130.372 20.5628 130.372 17.7286V10.0402H132.241V23.608Z" fill="#0068FF"/>
<path fill-rule="evenodd" clip-rule="evenodd" d="M147.708 23.608H149.487V4.94471H147.618V12.7839C147.015 11.3668 145.055 9.64822 142.07 9.64822C138 9.64822 135.075 12.7538 135.075 16.794C135.075 20.6231 137.759 24 142.1 24C144.935 24 146.744 22.5829 147.708 20.804V23.608ZM142.372 22.2512C138.844 22.2512 136.945 19.5377 136.915 16.8241C136.915 13.7487 139.206 11.3668 142.342 11.3668C143.849 11.3668 145.206 11.9397 146.171 12.9347C147.166 13.8693 147.739 15.196 147.739 16.7337C147.799 18.2412 147.226 19.6583 146.231 20.6532C145.266 21.6482 143.879 22.2512 142.372 22.2512Z" fill="#0068FF"/>
</g>
<defs>
<clipPath id="clip0">
<rect width="150" height="24" fill="white"/>
</clipPath>
</defs>
</svg>
