<svg width="150" height="32" viewBox="0 0 150 32" fill="none" xmlns="http://www.w3.org/2000/svg">
<path fill-rule="evenodd" clip-rule="evenodd" d="M46.941 9.52679V7.84285H52.0027V31.5254H49.1068C47.9148 31.5254 46.9475 30.5656 46.941 29.3796C46.9403 29.3803 46.9396 29.3803 46.9389 29.381C44.9003 30.8668 42.3803 31.7495 39.6586 31.7495C32.8417 31.7495 27.3145 26.2437 27.3145 19.4532C27.3145 12.6627 32.8417 7.1576 39.6586 7.1576C42.3803 7.1576 44.9003 8.03957 46.9389 9.52535C46.9396 9.52607 46.9403 9.52607 46.941 9.52679ZM26.0032 0.227295V0.994687C26.0032 2.42715 25.8109 3.59589 24.8776 4.96783L24.7649 5.09609C24.561 5.32667 24.0824 5.86781 23.8547 6.16107L7.607 26.4887H26.0032V29.3666C26.0032 30.5591 25.0323 31.5254 23.8359 31.5254H0V30.1686C0 28.5062 0.414218 27.7655 0.937592 26.9931L18.2588 5.62354H0.72217V0.227295H26.0032ZM58.1415 31.5254C57.1461 31.5254 56.3365 30.7191 56.3365 29.7283V0.227295H61.7538V31.5254H58.1415ZM77.7724 7.00917C84.6363 7.00917 90.1997 12.556 90.1997 19.3876C90.1997 26.2257 84.6363 31.7725 77.7724 31.7725C70.9078 31.7725 65.3452 26.2257 65.3452 19.3876C65.3452 12.556 70.9078 7.00917 77.7724 7.00917ZM39.6586 26.6876C43.6699 26.6876 46.9208 23.4494 46.9208 19.4532C46.9208 15.4635 43.6699 12.2246 39.6586 12.2246C35.6473 12.2246 32.3957 15.4635 32.3957 19.4532C32.3957 23.4494 35.6473 26.6876 39.6586 26.6876ZM77.7724 26.6753C81.8076 26.6753 85.0823 23.4134 85.0823 19.3876C85.0823 15.3683 81.8076 12.1064 77.7724 12.1064C73.7307 12.1064 70.4618 15.3683 70.4618 19.3876C70.4618 23.4134 73.7307 26.6753 77.7724 26.6753Z" fill="#0068FF"/>
<path d="M96.2597 4.06634C95.2246 5.10142 94.7071 6.37308 94.7071 7.86655C94.7071 9.34523 95.2246 10.6169 96.2597 11.6668C97.2948 12.7166 98.5665 13.2342 100.06 13.2342C101.553 13.2342 102.825 12.7166 103.86 11.6668C104.91 10.6169 105.428 9.36002 105.428 7.86655C105.428 6.37308 104.91 5.10142 103.86 4.06634C102.825 3.01647 101.553 2.49893 100.06 2.49893C98.5665 2.49893 97.2948 3.01647 96.2597 4.06634ZM102.899 4.99791C103.668 5.76682 104.052 6.72797 104.052 7.86655C104.052 8.99035 103.668 9.9515 102.899 10.7352C102.145 11.5041 101.199 11.8886 100.06 11.8886C98.9213 11.8886 97.975 11.5041 97.2061 10.7352C96.4519 9.9515 96.0675 8.99035 96.0675 7.86655C96.0675 6.72797 96.4519 5.78161 97.2061 4.99791C97.975 4.21421 98.9213 3.82975 100.06 3.82975C101.199 3.82975 102.145 4.21421 102.899 4.99791Z" fill="#0068FF"/>
<path d="M112.833 5.64853V5.27886C112.833 4.6726 112.981 4.22899 113.291 3.96283C113.602 3.71145 114.09 3.59316 114.77 3.59316C115.169 3.59316 115.687 3.63752 116.293 3.71145V2.54329C115.716 2.41021 115.214 2.35107 114.77 2.35107C112.626 2.35107 111.546 3.327 111.546 5.27886V5.64853H108.796V5.42673C108.796 4.19942 109.447 3.63752 110.748 3.74103V2.49893C109.713 2.425 108.914 2.6468 108.352 3.16434C107.791 3.66709 107.51 4.42122 107.51 5.42673V5.64853H106.327V6.89062H107.51V13.0419H108.796V6.89062H111.546V13.0419H112.833V6.89062H115.568V13.0419H116.855V5.64853H112.833Z" fill="#0068FF"/>
<path d="M119.498 12.1252C120.237 12.8645 121.169 13.2342 122.278 13.2342C122.988 13.2342 123.638 13.0567 124.245 12.7166C124.821 12.3765 125.28 11.9034 125.605 11.3119L124.511 10.676C124.052 11.5337 123.313 11.9625 122.278 11.9625C121.539 11.9625 120.918 11.7111 120.415 11.2084C119.927 10.6908 119.676 10.0698 119.676 9.34523C119.676 8.60589 119.927 7.98485 120.415 7.46731C120.918 6.96456 121.539 6.71318 122.278 6.71318C122.766 6.71318 123.21 6.83147 123.609 7.06806C123.993 7.30465 124.274 7.61518 124.467 8.01442L125.546 7.39337C125.265 6.8019 124.821 6.32872 124.245 5.97384C123.668 5.63374 123.003 5.4563 122.278 5.4563C121.169 5.4563 120.237 5.82597 119.498 6.5801C118.759 7.31944 118.389 8.23622 118.389 9.34523C118.389 10.4395 118.759 11.371 119.498 12.1252Z" fill="#0068FF"/>
<path d="M126.905 4.05155C127.067 4.21421 127.274 4.30293 127.526 4.30293C127.762 4.30293 127.969 4.21421 128.132 4.05155C128.295 3.8889 128.384 3.68188 128.384 3.44529C128.384 3.2087 128.295 3.00169 128.132 2.82424C127.969 2.66159 127.762 2.57287 127.526 2.57287C127.274 2.57287 127.067 2.66159 126.905 2.82424C126.742 3.00169 126.653 3.2087 126.653 3.44529C126.653 3.68188 126.742 3.8889 126.905 4.05155ZM128.162 13.0419V5.64853H126.875V13.0419H128.162Z" fill="#0068FF"/>
<path d="M136.246 6.9202C135.61 5.94426 134.679 5.4563 133.451 5.4563C132.416 5.4563 131.529 5.84076 130.805 6.59488C130.08 7.34901 129.71 8.2658 129.71 9.34523C129.71 10.4247 130.08 11.3562 130.805 12.1104C131.529 12.8645 132.401 13.2342 133.451 13.2342C134.679 13.2342 135.61 12.7462 136.246 11.7703V13.0419H137.533V5.64853H136.246V6.9202ZM135.492 11.2379C134.989 11.7407 134.368 11.9921 133.614 11.9921C132.875 11.9921 132.254 11.7407 131.751 11.2379C131.248 10.7204 130.997 10.0846 130.997 9.34523C130.997 8.59111 131.248 7.97006 131.751 7.46731C132.254 6.94977 132.875 6.69839 133.614 6.69839C134.368 6.69839 134.989 6.94977 135.492 7.46731C135.995 7.97006 136.246 8.59111 136.246 9.34523C136.246 10.0846 135.995 10.7204 135.492 11.2379Z" fill="#0068FF"/>
<path d="M140.768 13.0419V2.24756H139.482V13.0419H140.768Z" fill="#0068FF"/>
<path d="M103.535 30.7861L99.6755 20.4354H98.1229L94.2635 30.7861H95.7274L96.5702 28.4646H101.228L102.071 30.7861H103.535ZM98.8918 22.0767L100.755 27.1781H97.0434L98.8918 22.0767Z" fill="#0068FF"/>
<path d="M105.145 29.8693C105.884 30.6087 106.815 30.9784 107.924 30.9784C108.634 30.9784 109.285 30.8009 109.891 30.4608C110.468 30.1207 110.926 29.6475 111.251 29.0561L110.157 28.4202C109.699 29.2779 108.96 29.7067 107.924 29.7067C107.185 29.7067 106.564 29.4553 106.061 28.9526C105.573 28.435 105.322 27.814 105.322 27.0894C105.322 26.3501 105.573 25.729 106.061 25.2115C106.564 24.7087 107.185 24.4574 107.924 24.4574C108.412 24.4574 108.856 24.5757 109.255 24.8123C109.64 25.0488 109.921 25.3594 110.113 25.7586L111.192 25.1376C110.911 24.5461 110.468 24.0729 109.891 23.718C109.314 23.3779 108.649 23.2005 107.924 23.2005C106.815 23.2005 105.884 23.5702 105.145 24.3243C104.405 25.0636 104.035 25.9804 104.035 27.0894C104.035 28.1837 104.405 29.1152 105.145 29.8693Z" fill="#0068FF"/>
<path d="M113.116 29.8693C113.855 30.6087 114.786 30.9784 115.895 30.9784C116.605 30.9784 117.256 30.8009 117.862 30.4608C118.439 30.1207 118.897 29.6475 119.222 29.0561L118.128 28.4202C117.67 29.2779 116.931 29.7067 115.895 29.7067C115.156 29.7067 114.535 29.4553 114.032 28.9526C113.544 28.435 113.293 27.814 113.293 27.0894C113.293 26.3501 113.544 25.729 114.032 25.2115C114.535 24.7087 115.156 24.4574 115.895 24.4574C116.383 24.4574 116.827 24.5757 117.226 24.8123C117.611 25.0488 117.892 25.3594 118.084 25.7586L119.163 25.1376C118.882 24.5461 118.439 24.0729 117.862 23.718C117.285 23.3779 116.62 23.2005 115.895 23.2005C114.786 23.2005 113.855 23.5702 113.116 24.3243C112.376 25.0636 112.007 25.9804 112.007 27.0894C112.007 28.1837 112.376 29.1152 113.116 29.8693Z" fill="#0068FF"/>
<path d="M123.866 30.9784C124.961 30.9784 125.877 30.6087 126.632 29.8546C127.386 29.1004 127.77 28.1689 127.77 27.0894C127.77 26.01 127.386 25.0784 126.632 24.3243C125.877 23.5702 124.961 23.2005 123.866 23.2005C122.772 23.2005 121.855 23.5702 121.101 24.3243C120.347 25.0784 119.978 25.9952 119.978 27.0894C119.978 28.1837 120.347 29.1004 121.101 29.8546C121.855 30.6087 122.772 30.9784 123.866 30.9784ZM125.73 28.9674C125.227 29.4701 124.606 29.7215 123.866 29.7215C123.142 29.7215 122.521 29.4701 122.018 28.9674C121.515 28.4646 121.264 27.8436 121.264 27.0894C121.264 26.3353 121.515 25.7143 122.018 25.2115C122.521 24.7087 123.142 24.4574 123.866 24.4574C124.606 24.4574 125.227 24.7087 125.73 25.2115C126.232 25.7143 126.484 26.3353 126.484 27.0894C126.484 27.8436 126.232 28.4646 125.73 28.9674Z" fill="#0068FF"/>
<path d="M134.388 27.3112C134.388 28.1245 134.196 28.7308 133.797 29.1448C133.427 29.544 132.91 29.7511 132.244 29.7511C131.667 29.7511 131.224 29.5884 130.899 29.2483C130.573 28.9082 130.411 28.4498 130.411 27.8583V23.3927H129.124V27.9323C129.124 28.8638 129.39 29.618 129.908 30.1651C130.425 30.7122 131.12 30.9784 131.993 30.9784C133.072 30.9784 133.871 30.5643 134.388 29.7215V30.7861H135.675V23.3927H134.388V27.3112Z" fill="#0068FF"/>
<path d="M143.4 24.0138C142.883 23.4667 142.188 23.2005 141.315 23.2005C140.236 23.2005 139.437 23.6145 138.92 24.4574V23.3927H137.633V30.7861H138.92V26.8676C138.92 26.0543 139.112 25.4481 139.511 25.0193C139.881 24.62 140.398 24.4278 141.064 24.4278C141.64 24.4278 142.084 24.5905 142.409 24.9305C142.735 25.2706 142.897 25.729 142.897 26.3205V30.7861H144.184V26.2466C144.184 25.315 143.918 24.5609 143.4 24.0138Z" fill="#0068FF"/>
<path d="M150.002 23.3927H148.035V21.3226L146.749 21.707V23.3927H145.285V24.6348H146.749V28.642C146.749 29.544 147.015 30.1651 147.532 30.5052C148.05 30.8453 148.863 30.934 150.002 30.7861V29.6328C149.218 29.6771 148.715 29.6623 148.523 29.5884C148.198 29.4701 148.035 29.1596 148.035 28.642V24.6348H150.002V23.3927Z" fill="#0068FF"/>
</svg>
